<svg xmlns="http://www.w3.org/2000/svg" viewBox="0 0 64 64" fill="none">
  <path d="M12 10 C12 7 14 5 17 5 L47 5 C50 5 52 7 52 10 L52 50 C52 53 50 55 47 55 L17 55 C14 55 12 53 12 50Z" fill="#6c2d91"/>
  <path d="M12 10 C12 7 14 5 17 5 L20 5 L20 55 L17 55 C14 55 12 53 12 50Z" fill="#5b2480"/>
  <rect x="18" y="8" width="31" height="43" rx="2" fill="#fff9ee"/>
  <line x1="23" y1="18" x2="44" y2="18" stroke="#d4c5a9" stroke-width="1.5"/>
  <line x1="23" y1="25" x2="42" y2="25" stroke="#d4c5a9" stroke-width="1.5"/>
  <line x1="23" y1="32" x2="43" y2="32" stroke="#d4c5a9" stroke-width="1.5"/>
  <line x1="23" y1="39" x2="40" y2="39" stroke="#d4c5a9" stroke-width="1.5"/>
  <path d="M38 5 L38 22 L40 19 L42 22 L42 5" fill="#e74c3c"/>
</svg>
