<svg xmlns="http://www.w3.org/2000/svg" viewBox="0 0 64 64" fill="none">
  <!-- Bible -->
  <rect x="12" y="12" width="40" height="40" rx="4" fill="#8e44ad"/>
  <rect x="12" y="12" width="6" height="40" rx="2" fill="#6c2d91"/>
  <rect x="20" y="16" width="28" height="32" rx="3" fill="#f5eef8"/>
  <!-- Cross -->
  <rect x="31" y="20" width="3" height="14" rx="1" fill="#d4a017"/>
  <rect x="27" y="24" width="11" height="3" rx="1" fill="#d4a017"/>
  <!-- Heart -->
  <path d="M32.5 44 C32.5 44 26 38 26 34 C26 31.5 28 30 30 30.5 C31 30.8 32 31.8 32.5 32.5 C33 31.8 34 30.8 35 30.5 C37 30 39 31.5 39 34 C39 38 32.5 44 32.5 44Z" fill="#e74c3c"/>
</svg>