<svg xmlns="http://www.w3.org/2000/svg" viewBox="0 0 256 256" fill="none">
  <!-- Bible book - cover -->
  <path d="M50 40 C50 34 55 28 62 28 L194 28 C200 28 206 34 206 40 L206 200 C206 206 200 212 194 212 L62 212 C55 212 50 206 50 200Z" fill="#6c2d91"/>
  <!-- Spine -->
  <path d="M50 40 C50 34 55 28 62 28 L72 28 L72 212 L62 212 C55 212 50 206 50 200Z" fill="#5b2480"/>
  <!-- Pages -->
  <rect x="68 " y="34" width="132" height="172" rx="4" fill="#fff9ee"/>
  <!-- Page lines -->
  <line x1="82" y1="65" x2="186" y2="65" stroke="#d4c5a9" stroke-width="2"/>
  <line x1="82" y1="82" x2="178" y2="82" stroke="#d4c5a9" stroke-width="2"/>
  <line x1="82" y1="99" x2="183" y2="99" stroke="#d4c5a9" stroke-width="2"/>
  <line x1="82" y1="124" x2="186" y2="124" stroke="#d4c5a9" stroke-width="2"/>
  <line x1="82" y1="141" x2="175" y2="141" stroke="#d4c5a9" stroke-width="2"/>
  <line x1="82" y1="158" x2="183" y2="158" stroke="#d4c5a9" stroke-width="2"/>
  <line x1="82" y1="175" x2="170" y2="175" stroke="#d4c5a9" stroke-width="2"/>
  <!-- Ribbon bookmark -->
  <path d="M155 28 L155 95 L161 85 L167 95 L167 28" fill="#e74c3c"/>
  <!-- Gold corners -->
  <path d="M56 34 L74 34 L56 52Z" fill="#d4a017" opacity="0.6"/>
  <path d="M200 34 L182 34 L200 52Z" fill="#d4a017" opacity="0.6"/>
  <path d="M56 206 L74 206 L56 188Z" fill="#d4a017" opacity="0.6"/>
  <path d="M200 206 L182 206 L200 188Z" fill="#d4a017" opacity="0.6"/>
</svg>
